<?xml version="1.0" encoding="utf-8"?>
<!-- Generator: Adobe Illustrator 16.0.0, SVG Export Plug-In . SVG Version: 6.00 Build 0)  -->
<svg version="1.2" baseProfile="tiny" id="Слой_1"
	 xmlns="http://www.w3.org/2000/svg" xmlns:xlink="http://www.w3.org/1999/xlink" x="0px" y="0px" width="42px" height="42px"
	 viewBox="0 0 42 42" xml:space="preserve">
<g>
	<path fill-rule="evenodd" fill="#85C340" d="M21,1c11.045,0,20,8.957,20,20.005c0,11.047-8.955,20.004-20,20.004
		c-11.045,0-20-8.957-20-20.004C1,9.957,9.955,1,21,1z"/>
	<g>
		<path fill="#FFFFFF" d="M28.674,14.39c0.293-0.293,0.293-0.768,0-1.061s-0.768-0.293-1.061,0l-6.614,6.614l1.061,1.061
			L28.674,14.39z"/>
		<path fill="#FFFFFF" d="M13.325,27.618c-0.293,0.293-0.293,0.768,0,1.061c0.146,0.146,0.338,0.22,0.53,0.22s0.384-0.073,0.53-0.22
			l6.613-6.614l-1.061-1.061L13.325,27.618z"/>
		<path fill="#FFFFFF" d="M28.674,27.618l-6.614-6.614l-1.061-1.061l-6.613-6.613c-0.293-0.293-0.768-0.293-1.061,0
			s-0.293,0.768,0,1.061l6.613,6.613l1.061,1.061l6.614,6.614c0.146,0.146,0.338,0.22,0.53,0.22s0.384-0.073,0.53-0.22
			C28.967,28.386,28.967,27.911,28.674,27.618z"/>
	</g>
</g>
</svg>
