<?xml version="1.0" encoding="utf-8"?>
<!-- Generator: Adobe Illustrator 21.0.2, SVG Export Plug-In . SVG Version: 6.00 Build 0)  -->
<svg version="1.1" id="Layer_1" xmlns="http://www.w3.org/2000/svg" xmlns:xlink="http://www.w3.org/1999/xlink" x="0px" y="0px"
	 viewBox="0 0 395 396.3" style="enable-background:new 0 0 395 396.3;" xml:space="preserve">
<style type="text/css">
	.st0{fill-rule:evenodd;clip-rule:evenodd;fill:#146DB8;}
	.st1{fill-rule:evenodd;clip-rule:evenodd;fill:#D21134;}
	.st2{fill-rule:evenodd;clip-rule:evenodd;fill:#FFFFFF;}
</style>
<g>
	<g>
		<path class="st0" d="M108.3,180.8h-2.9c-1.6-0.1-2.4-0.9-2.4-2.4c0-0.7,0.3-1.3,0.9-1.8l9-6.7c-1.9-0.7-3.4-2-4.3-3.8
			c-1.2-1.7-1.8-3.5-1.8-5.4c0-2.9,1-5.4,2.9-7.4c1.9-1.9,4.3-2.9,7.1-2.9c2.9,0,5.4,1,7.4,2.9c1.9,2.1,2.9,4.5,2.9,7.4
			c0,1.9-0.6,3.7-1.8,5.4c-1.1,1.8-2.5,3.1-4.3,3.8l9,6.7c0.6,0.5,0.9,1.1,0.9,1.8c0,1.6-0.8,2.4-2.4,2.4h-2.9v15.7
			c0,0.6-0.2,1.1-0.7,1.6c-0.5,0.5-1,0.7-1.4,0.7h-12.8c-0.7,0-1.3-0.2-1.6-0.7c-0.5-0.5-0.7-1-0.7-1.6V180.8z M127.8,134.5
			c0-2.3,0.8-4.2,2.5-5.8c1.7-1.7,3.6-2.5,5.8-2.5c2.3,0,4.3,0.8,6,2.5c1.6,1.6,2.4,3.5,2.4,5.8c0,2.2-0.8,4.1-2.4,5.8
			c-1.7,1.7-3.7,2.5-6,2.5c-2.2,0-4.1-0.8-5.8-2.5C128.7,138.6,127.8,136.7,127.8,134.5z M269.8,166.1c-1.2-1.7-1.8-3.5-1.8-5.4
			c0-2.9,1-5.4,2.9-7.4c2-1.9,4.5-2.9,7.2-2.9c2.9,0,5.3,1,7.2,2.9c2.1,2.1,3.1,4.5,3.1,7.4c0,1.9-0.6,3.7-1.8,5.4
			c-1.2,1.8-2.7,3.1-4.5,3.8l9,6.7h0.2c0.5,0.5,0.7,1.1,0.7,1.8c0,1.6-0.8,2.4-2.4,2.4H287v15.7c0,0.6-0.2,1.1-0.7,1.6
			c-0.5,0.5-1,0.7-1.6,0.7h-12.8c-0.7,0-1.3-0.2-1.6-0.7c-0.5-0.5-0.7-1-0.7-1.6v-15.7h-2.9c-1.4-0.1-2.2-0.9-2.2-2.4
			c0-0.7,0.3-1.3,0.9-1.8l9-6.7C272.4,169.2,270.9,168,269.8,166.1z M266.2,140.3c-1.6,1.7-3.5,2.5-5.8,2.5c-2.3,0-4.2-0.8-5.8-2.5
			c-1.7-1.7-2.5-3.6-2.5-5.8c0-2.3,0.8-4.2,2.5-5.8c1.6-1.7,3.5-2.5,5.8-2.5c2.3,0,4.2,0.8,5.8,2.5c1.7,1.6,2.5,3.5,2.5,5.8
			C268.7,136.7,267.9,138.6,266.2,140.3z M226.2,193.6c-0.6-0.7-0.9-1.6-0.9-2.5c0-1,0.4-1.9,1.3-2.7l13.4-9.9
			c-2.8-1.1-4.9-2.9-6.5-5.4c-1.8-2.5-2.7-5.4-2.7-8.5c0-4.1,1.5-7.7,4.5-10.7c2.9-3,6.5-4.5,10.7-4.5c4.2,0,7.8,1.5,10.7,4.5
			c3,3,4.5,6.6,4.5,10.7c0,3.1-0.8,6-2.5,8.5c-1.8,2.5-4,4.3-6.7,5.4l13.4,9.9h0.2c0.8,0.8,1.3,1.7,1.3,2.7c0,1-0.4,1.8-1.1,2.5
			c-0.7,0.7-1.6,1.1-2.5,1.1h-4.2v23.3c0,1-0.4,1.8-1.1,2.5c-0.6,0.7-1.4,1.1-2.4,1.1h-19.2c-1,0-1.7-0.4-2.4-1.1
			c-0.7-0.7-1.1-1.6-1.1-2.5v-23.3h-4.2C227.8,194.7,226.9,194.4,226.2,193.6z M164.3,164.5c0,3.1-0.9,6-2.7,8.5
			c-1.7,2.5-3.9,4.3-6.5,5.4l13.4,9.9h0.2c0.8,0.8,1.3,1.7,1.3,2.7c0,1-0.4,1.8-1.1,2.5c-0.6,0.7-1.4,1.1-2.4,1.1h-4.3v23.3
			c0,1-0.3,1.8-0.9,2.5c-0.7,0.7-1.6,1.1-2.5,1.1h-19c-1,0-1.8-0.4-2.5-1.1c-0.7-0.7-1.1-1.6-1.1-2.5v-23.3H132
			c-1,0-1.8-0.4-2.5-1.1c-0.6-0.7-0.9-1.6-0.9-2.5c0-1,0.4-1.9,1.3-2.7l13.4-9.9c-2.8-1.1-4.9-2.9-6.5-5.4c-1.8-2.5-2.7-5.4-2.7-8.5
			c0-4.1,1.5-7.7,4.5-10.7c2.9-3,6.5-4.5,10.7-4.5c4.1,0,7.7,1.5,10.7,4.5C162.8,156.7,164.3,160.3,164.3,164.5z M167.2,125.1
			c2.1-2.1,4.5-3.1,7.4-3.1c2.8,0,5.2,1,7.2,3.1c2,2,3.1,4.5,3.1,7.2c0,2.9-1,5.4-3.1,7.4c-2.1,2.1-4.5,3.1-7.2,3.1
			c-2.9,0-5.4-1-7.4-3.1c-1.9-2-2.9-4.5-2.9-7.4C164.3,129.5,165.3,127.1,167.2,125.1z M167.1,114.6c0,1.8-0.6,3.3-1.8,4.5
			c-1.2,1.2-2.7,1.8-4.5,1.8c-1.7,0-3.1-0.6-4.3-1.8c-1.2-1.2-1.8-2.7-1.8-4.5c0-1.6,0.6-3,1.8-4.3c1.2-1.2,2.7-1.8,4.3-1.8
			c1.8,0,3.3,0.6,4.5,1.8C166.5,111.6,167.1,113,167.1,114.6z M197.6,140.6c5.4,0,10.1,2,14.1,6c3.9,3.9,5.8,8.6,5.8,14.1
			c0,3.9-1.1,7.5-3.4,11c-2.3,3.3-5.2,5.7-8.9,7.2l17.7,13c1.2,0.8,1.8,2,1.8,3.6c0,1.3-0.4,2.4-1.3,3.3c-0.8,0.8-1.9,1.3-3.3,1.3
			h-5.4v30.9c0,1.2-0.5,2.3-1.4,3.3c-1,1-2,1.4-3.3,1.4h-25c-1.3,0-2.4-0.5-3.3-1.4c-0.8-1-1.3-2.1-1.3-3.3v-30.9h-5.8
			c-1.2,0-2.2-0.4-3.1-1.3c-1-0.8-1.4-1.9-1.4-3.3c0-1.4,0.6-2.7,1.8-3.6l17.5-13c-3.5-1.6-6.4-4-8.7-7.2c-2.2-3.4-3.3-7.1-3.3-11
			c0-5.5,1.9-10.3,5.8-14.1C187.4,142.6,192.1,140.6,197.6,140.6z M205,114.8c0,2.3-0.8,4.2-2.4,5.8c-1.7,1.7-3.7,2.5-6,2.5
			c-2.3,0-4.2-0.8-5.8-2.5c-1.7-1.6-2.5-3.5-2.5-5.8c0-2.3,0.8-4.2,2.5-5.8c1.6-1.7,3.5-2.5,5.8-2.5c2.3,0,4.3,0.8,6,2.5
			C204.3,110.6,205,112.5,205,114.8z M220.4,122c2.8,0,5.2,1,7.2,3.1c2.1,2,3.1,4.5,3.1,7.2c0,2.9-1,5.4-3.1,7.4
			c-2.1,2.1-4.5,3.1-7.2,3.1c-2.8,0-5.2-1-7.2-3.1c-2.1-2-3.1-4.5-3.1-7.4c0-2.8,1-5.2,3.1-7.2C215.2,123,217.6,122,220.4,122z
			 M231.3,119.1c-1.3-1.2-2-2.7-2-4.5c0-1.6,0.7-3,2-4.3c1.1-1.2,2.5-1.8,4.3-1.8c1.6,0,3,0.6,4.3,1.8c1.1,1.3,1.6,2.8,1.6,4.3
			c0,1.8-0.5,3.3-1.6,4.5c-1.3,1.2-2.8,1.8-4.3,1.8C233.8,120.9,232.4,120.3,231.3,119.1z M212.6,97c0.8-0.8,1.8-1.3,2.9-1.3
			c1.3,0,2.4,0.4,3.1,1.3c1,0.8,1.4,1.9,1.4,3.1c0,1.2-0.5,2.2-1.4,3.1c-0.7,0.8-1.7,1.3-3.1,1.3c-1.1,0-2-0.4-2.9-1.3
			c-1-0.8-1.4-1.9-1.4-3.1C211.2,98.9,211.7,97.9,212.6,97z M196.7,92.5c-0.8,0-1.6-0.3-2.2-0.9c-0.7-0.6-1.1-1.4-1.1-2.4
			c0-1,0.4-1.7,1.1-2.2c0.6-0.7,1.3-1.1,2.2-1.1c1,0,1.7,0.4,2.4,1.1c0.6,0.5,0.9,1.2,0.9,2.2c0,1-0.3,1.7-0.9,2.4
			C198.5,92.2,197.7,92.5,196.7,92.5z M177.4,103.2c-0.8-0.8-1.3-1.9-1.3-3.1c0-1.2,0.4-2.2,1.3-3.1c0.8-0.8,1.9-1.3,3.1-1.3
			c1.2,0,2.2,0.4,3.1,1.3c0.8,0.8,1.3,1.9,1.3,3.1c0,1.2-0.4,2.2-1.3,3.1c-0.8,0.8-1.9,1.3-3.1,1.3
			C179.2,104.5,178.2,104,177.4,103.2z"/>
		<path class="st0" d="M279.8,95.1c22.7,22.7,34,50,34,82c0,16.1-3.2,31.5-9.6,46.3c-6.4,14.8-15.4,27.7-27.1,38.7
			c-1.1,1-2.4,1.5-3.9,1.5c-1.6-0.1-2.8-0.7-3.8-1.7c-1-1.1-1.5-2.3-1.5-3.8c0.1-1.5,0.7-2.7,1.7-3.8c10.8-10.1,19-21.8,24.7-35.1
			c5.7-13.3,8.6-27.3,8.6-42c0-29.1-10.3-53.9-30.8-74.5c-20.7-20.7-45.5-31-74.6-31s-54,10.3-74.6,31c-20.7,20.6-31,45.4-31,74.5
			c0,14.7,2.9,28.8,8.6,42c5.7,13.3,14,25,24.7,35.1c1.1,1.1,1.6,2.3,1.7,3.8c0.1,1.5-0.4,2.7-1.5,3.8c-1,1.1-2.2,1.6-3.8,1.7
			c-1.5,0.1-2.7-0.4-3.8-1.5c-11.7-11-20.8-23.9-27.2-38.7c-6.4-14.7-9.6-30.2-9.6-46.3c0-32,11.4-59.4,34.2-82
			C138.1,72.4,165.5,61,197.6,61C229.6,61,257,72.4,279.8,95.1z"/>
		<path class="st1" d="M236.8,246c6.7,0,12.4,2.4,17.2,7.1c4.7,4.7,7,10.3,7,17c0,6.6-2.3,12.3-7,17c-4.8,4.7-10.5,7-17.2,7h-77.4
			l-1.3,0.1c-6.7,0-12.4-2.3-17-7c-4.8-4.8-7.1-10.5-7.1-17.2c0-6.6,2.4-12.3,7.1-17c4.7-4.8,10.3-7.1,17-7.1H236.8z"/>
		<g>
			<path class="st2" d="M167.8,262.8c0-0.9-0.3-1.6-0.9-2.3c-0.6-0.7-1.4-1-2.3-1c-1.7,0-3,1.2-3.8,3.6c-0.7,2.3-1.7,3.5-3.1,3.5
				c-2.2,0-3.3-1.1-3.3-3.2c0-2.8,1.1-5.2,3.2-7.1c2.1-1.9,4.6-2.9,7.3-2.9c2.8,0,5.1,0.8,7,2.5c1.9,1.6,2.9,3.9,2.9,6.7
				c0,2.5-1.3,5.5-3.9,9c-1.5,1.9-3.7,4.6-6.7,8h8c2.3,0,3.5,1,3.5,2.9s-1.1,2.9-3.2,2.9h-14.8c-2.2,0-3.3-1-3.3-2.9
				c0-1,0.3-1.7,1-2.2c5-5.6,8.7-10,11.1-13.2C167.3,265.3,167.8,263.8,167.8,262.8z"/>
			<path class="st2" d="M190.4,259.3c-3.2,0-4.8,3.4-4.8,10.3c0,6.9,1.6,10.3,4.8,10.3c3.2,0,4.8-3.4,4.8-10.3
				C195.2,262.7,193.6,259.3,190.4,259.3z M202.2,269.6c0,4.4-0.8,8-2.5,10.9c-2.1,3.6-5.2,5.4-9.3,5.4c-4.1,0-7.1-1.8-9.2-5.4
				c-1.7-3-2.6-6.6-2.6-10.9c0-4.3,0.9-7.9,2.6-10.9c2-3.6,5.1-5.4,9.2-5.4c4.1,0,7.2,1.8,9.3,5.4
				C201.3,261.6,202.2,265.3,202.2,269.6z"/>
			<path class="st2" d="M207.3,253.8h6.3c2,0,3.1,1.1,3.1,3.2v25.5c0,2.3-1.1,3.5-3.3,3.5c-2.2,0-3.3-1.2-3.3-3.5v-22.6h-2.6
				c-2,0-3.1-1-3.1-3.1c0-0.8,0.3-1.5,0.9-2C205.7,254.1,206.4,253.8,207.3,253.8z"/>
			<path class="st2" d="M232.3,259.1c-2.1,0-3.2,1.1-3.2,3.3c0,2.2,1.1,3.3,3.2,3.3c2.1,0,3.2-1.1,3.2-3.3
				C235.5,260.3,234.4,259.1,232.3,259.1z M238.4,268.2c3.2,1.6,4.8,4.1,4.8,7.7c0,3-1.1,5.4-3.2,7.3c-2,1.8-4.6,2.8-7.7,2.8
				c-3.1,0-5.7-0.9-7.9-2.8c-2.1-1.9-3.2-4.4-3.2-7.3c0-3.5,1.6-6.1,4.8-7.7c-2.2-1.7-3.3-3.9-3.3-6.4c0-2.5,1-4.6,2.9-6.1
				c1.7-1.6,4-2.3,6.7-2.3c2.6,0,4.9,0.8,6.7,2.3c1.9,1.6,2.9,3.7,2.9,6.1C241.9,264.5,240.7,266.6,238.4,268.2z M235.2,278.5
				c0.7-0.9,1-1.9,1-3.2c0-2.9-1.3-4.4-3.9-4.4c-2.7,0-4.1,1.5-4.1,4.4c0,1.3,0.3,2.3,1,3.2c0.8,0.9,1.8,1.3,3.1,1.3
				C233.4,279.8,234.4,279.4,235.2,278.5z"/>
		</g>
	</g>
	<g>
		<g>
			<path class="st0" d="M137,319.1v14.2c0,1.3-0.6,1.9-1.9,1.9c-1.3,0-1.9-0.6-1.9-1.9v-12.9h-7.9v12.9c0,1.3-0.6,1.9-1.9,1.9
				c-1.2,0-1.9-0.6-1.9-1.9v-14.2c0-1.3,0.6-1.9,1.9-1.9h11.7C136.3,317.1,137,317.8,137,319.1z"/>
			<path class="st0" d="M149.5,333.3c0,0.4-0.1,0.8-0.4,1.2c-0.3,0.3-0.8,0.5-1.3,0.5h-6.5c-0.5,0-1-0.2-1.4-0.5
				c-0.3-0.3-0.5-0.8-0.5-1.3v-13.9c0-1.4,0.7-2.2,2-2.2h6.2c1.2,0,1.8,0.6,1.8,1.7c0,1.1-0.6,1.7-1.8,1.7h-4.5v3.7h4.2
				c0.5,0,1,0.2,1.4,0.5c0.3,0.3,0.4,0.7,0.4,1.2c0,0.5-0.1,0.9-0.4,1.3c-0.4,0.3-0.9,0.5-1.4,0.5h-4.2v3.8h4.7c0.5,0,1,0.2,1.3,0.6
				C149.4,332.4,149.5,332.8,149.5,333.3z"/>
			<path class="st0" d="M162.2,327.5c-1.2,1.1-2.7,1.6-4.5,1.6H155v4.2c0,1.3-0.6,1.9-1.9,1.9c-1.2,0-1.9-0.6-1.9-1.9v-14.2
				c0-1.3,0.6-1.9,1.9-1.9h4.5c1.9,0,3.4,0.5,4.6,1.6c1.2,1.1,1.9,2.6,1.9,4.4C164.1,324.9,163.5,326.4,162.2,327.5z M159.5,321.2
				c-0.5-0.5-1.1-0.8-1.9-0.8H155v5.4h2.5c0.8,0,1.4-0.2,1.9-0.7c0.4-0.5,0.7-1.1,0.7-1.9C160.2,322.3,159.9,321.7,159.5,321.2z"/>
			<path class="st0" d="M175.5,318.8c0,1.1-0.6,1.7-1.8,1.7h-4.5v3.7h4.1c0.6,0,1.1,0.2,1.4,0.5c0.3,0.3,0.4,0.7,0.4,1.2
				c0,1.2-0.6,1.8-1.9,1.8h-4.1v3.8h4.7c0.5,0,1,0.2,1.3,0.6c0.3,0.3,0.4,0.7,0.4,1.2c0,0.4-0.1,0.8-0.4,1.2
				c-0.3,0.3-0.8,0.5-1.3,0.5h-6.5c-0.5,0-1-0.2-1.4-0.5c-0.3-0.3-0.5-0.8-0.5-1.3v-13.9c0-1.4,0.6-2.2,1.9-2.2h6.3
				C174.9,317.1,175.5,317.7,175.5,318.8z"/>
			<path class="st0" d="M192.9,333.3c0,1.3-0.6,1.9-1.9,1.9c-1.2,0-1.9-0.6-1.9-1.9v-12.9h-8v12.9c0,1.3-0.6,1.9-1.9,1.9
				c-1.2,0-1.9-0.6-1.9-1.9v-14.2c0-1.3,0.6-1.9,1.9-1.9H191c1.3,0,1.9,0.6,1.9,1.9V333.3z"/>
			<path class="st0" d="M210.8,333.3c0,1.3-0.6,1.9-1.9,1.9c-1.2,0-1.9-0.6-1.9-1.9v-9.4h-0.1l-8.2,10.6c-0.4,0.5-0.9,0.8-1.6,0.8
				c-1.3,0-1.9-0.6-1.9-1.9v-14.3c0-1.3,0.6-1.9,1.9-1.9c1.2,0,1.9,0.6,1.9,1.9v9.5h0.1l8.2-10.6c0.4-0.5,0.9-0.8,1.6-0.8
				c1.3,0,1.9,0.6,1.9,1.9V333.3z"/>
			<path class="st0" d="M221.2,316.8c1.3,0,2.4,0.2,3.4,0.6c1.3,0.5,2,1.2,2,2.2c0,0.4-0.1,0.8-0.4,1.2c-0.3,0.3-0.7,0.4-1.1,0.4
				c-0.2,0-0.8-0.1-1.6-0.4c-0.7-0.3-1.5-0.4-2.3-0.4c-1.5,0-2.7,0.6-3.6,1.7c-0.8,1.1-1.2,2.4-1.2,4c0,1.6,0.4,2.9,1.2,3.9
				c0.9,1.1,2.1,1.6,3.6,1.6c0.8,0,1.6-0.2,2.4-0.5c0.8-0.3,1.4-0.5,1.6-0.5c0.5,0,0.9,0.2,1.3,0.7c0.2,0.3,0.4,0.7,0.4,1
				c0,1.1-0.7,1.9-2.2,2.4c-1,0.4-2.2,0.6-3.5,0.6c-2.5,0-4.6-0.9-6.2-2.7c-1.6-1.7-2.5-3.9-2.5-6.6c0-2.6,0.8-4.8,2.5-6.5
				C216.6,317.7,218.7,316.8,221.2,316.8z"/>
			<path class="st0" d="M240,333.6c-1,0.9-2.5,1.4-4.2,1.4H231c-0.6,0-1.1-0.2-1.5-0.5c-0.4-0.3-0.6-0.8-0.6-1.3v-14.3
				c0-1.3,0.6-1.9,1.9-1.9c1.2,0,1.9,0.6,1.9,1.9v5.1h2.6c1.9,0,3.4,0.4,4.5,1.3c1.2,0.9,1.8,2.3,1.8,4.2
				C241.6,331.2,241.1,332.6,240,333.6z M232.7,331.7h2.6c0.7,0,1.3-0.2,1.7-0.6c0.4-0.4,0.7-1,0.7-1.7c0-1.4-0.9-2.1-2.7-2.1h-2.3
				V331.7z"/>
			<path class="st0" d="M268.6,333.3c0,1.3-0.6,1.9-1.9,1.9c-1.2,0-1.9-0.6-1.9-1.9v-5.5h-8v5.5c0,1.3-0.6,1.9-1.9,1.9
				c-1.3,0-1.9-0.6-1.9-1.9v-14.3c0-1.3,0.6-1.9,1.9-1.9c1.2,0,1.9,0.6,1.9,1.9v5.3h8v-5.3c0-1.3,0.6-1.9,1.9-1.9
				c1.3,0,1.9,0.6,1.9,1.9V333.3z"/>
			<path class="st0" d="M284,335.2c-0.9,0-1.5-0.4-1.9-1.3l-0.7-2.4h-7l-0.7,2.3c-0.3,0.9-1,1.3-1.9,1.3c-0.5,0-0.9-0.2-1.3-0.5
				c-0.4-0.3-0.6-0.7-0.6-1.2c0.1-0.5,0.1-0.8,0.1-0.9l5.1-13.7c0.4-1.4,1.3-2.1,2.7-2.1c1.4,0,2.3,0.7,2.7,2.1l5,13.7l0.2,1
				c0,0.5-0.2,0.9-0.5,1.2C285,335,284.5,335.2,284,335.2z M280.3,328.1l-2.4-7.4l-2.5,7.4H280.3z"/>
			<path class="st0" d="M300.2,332.4c0,1.1-0.7,1.9-2.2,2.4c-1,0.4-2.2,0.6-3.6,0.6c-2.5,0-4.6-0.9-6.2-2.7
				c-1.6-1.7-2.5-3.9-2.5-6.6c0-2.6,0.8-4.8,2.4-6.5c1.6-1.8,3.7-2.7,6.2-2.7c1.3,0,2.4,0.2,3.4,0.6c1.3,0.5,2,1.2,2,2.2
				c0,1.1-0.5,1.6-1.6,1.6c-0.2,0-0.7-0.1-1.5-0.4c-0.8-0.3-1.6-0.4-2.4-0.4c-1.5,0-2.7,0.6-3.5,1.7c-0.8,1-1.2,2.4-1.2,4
				c0,1.6,0.4,2.9,1.2,3.9c0.8,1.1,2,1.6,3.5,1.6c0.8,0,1.6-0.2,2.5-0.5c0.8-0.3,1.3-0.5,1.6-0.5c0.5,0,1,0.2,1.3,0.7
				C300.1,331.7,300.2,332,300.2,332.4z"/>
			<path class="st0" d="M312.3,318.8c0,1.1-0.6,1.7-1.8,1.7H306v3.7h4.1c0.6,0,1.1,0.2,1.4,0.5c0.3,0.3,0.4,0.7,0.4,1.2
				c0,1.2-0.6,1.8-1.9,1.8H306v3.8h4.7c0.5,0,1,0.2,1.3,0.6c0.3,0.3,0.4,0.7,0.4,1.2c0,0.4-0.1,0.8-0.4,1.2
				c-0.3,0.3-0.8,0.5-1.3,0.5h-6.5c-0.5,0-1-0.2-1.4-0.5c-0.3-0.3-0.5-0.8-0.5-1.3v-13.9c0-1.4,0.6-2.2,1.9-2.2h6.3
				C311.7,317.1,312.3,317.7,312.3,318.8z"/>
			<path class="st0" d="M329.7,333.3c0,1.3-0.6,1.9-1.9,1.9c-1.3,0-1.9-0.6-1.9-1.9v-12.9h-5v5.6c0,3.6-0.9,6.2-2.8,7.9
				c-0.9,0.8-1.9,1.3-3,1.3c-1.1,0-1.7-0.6-1.7-1.7c0-0.8,0.5-1.4,1.4-1.8c1.5-0.7,2.3-2.3,2.3-4.8v-7.8c0-1.3,0.6-1.9,1.9-1.9h8.8
				c1.2,0,1.9,0.6,1.9,1.9V333.3z"/>
			<path class="st0" d="M342.2,318.8c0,1.1-0.6,1.7-1.8,1.7H336v3.7h4.2c0.5,0,1,0.2,1.4,0.5c0.3,0.3,0.4,0.7,0.4,1.2
				c0,0.5-0.1,0.9-0.4,1.3c-0.4,0.3-0.9,0.5-1.4,0.5H336v3.8h4.7c0.5,0,1,0.2,1.3,0.6c0.3,0.3,0.4,0.7,0.4,1.2
				c0,0.4-0.1,0.8-0.4,1.2c-0.3,0.3-0.8,0.5-1.3,0.5h-6.5c-0.5,0-1-0.2-1.4-0.5c-0.3-0.3-0.5-0.8-0.5-1.3v-13.9c0-1.4,0.7-2.2,2-2.2
				h6.2C341.6,317.1,342.2,317.7,342.2,318.8z"/>
			<path class="st0" d="M359.6,333.3c0,1.3-0.6,1.9-1.9,1.9c-1.3,0-1.9-0.6-1.9-1.9v-5.5H348v5.5c0,1.3-0.6,1.9-1.9,1.9
				c-1.2,0-1.9-0.6-1.9-1.9v-14.3c0-1.3,0.6-1.9,1.9-1.9c1.3,0,1.9,0.6,1.9,1.9v5.3h7.9v-5.3c0-1.3,0.6-1.9,1.9-1.9
				c1.2,0,1.9,0.6,1.9,1.9V333.3z"/>
			<path class="st0" d="M375.8,335.2c-1.2,0-1.9-0.6-1.9-1.9v-9.4h-0.1l-8.2,10.6c-0.4,0.5-0.9,0.8-1.6,0.8c-1.3,0-1.9-0.6-1.9-1.9
				v-14.3c0-1.3,0.6-1.9,1.9-1.9c1.2,0,1.9,0.6,1.9,1.9v9.5h0.1l8.2-10.6c0.4-0.5,0.9-0.8,1.6-0.8c1.3,0,1.9,0.6,1.9,1.9v14.3
				C377.7,334.5,377,335.2,375.8,335.2z"/>
			<path class="st0" d="M388.5,320.5h-2.6c-1.6,0-2.4,0.7-2.4,2.2c0,1.5,0.8,2.2,2.4,2.2h2.6V320.5z M392.3,333.3
				c0,1.3-0.6,1.9-1.9,1.9c-1.2,0-1.9-0.6-1.9-1.9v-5.5h-0.1l-5.6,6.8c-0.4,0.4-0.9,0.6-1.5,0.6c-0.5,0-1-0.2-1.3-0.6
				c-0.3-0.4-0.5-0.8-0.5-1.3c0-0.4,0.2-0.8,0.5-1.1l4.2-4.5c-1.3-0.2-2.4-0.7-3.3-1.5c-0.9-0.9-1.4-2-1.4-3.3
				c0-3.8,2.1-5.6,6.3-5.6h4.5c1.3,0,1.9,0.6,1.9,1.9V333.3z"/>
		</g>
		<g>
			<path class="st0" d="M6.3,333c0,1.3-0.6,1.9-1.9,1.9c-1.2,0-1.8-0.6-1.8-1.9v-13.9c0-1.3,0.6-1.9,1.8-1.9h11.4
				c1.2,0,1.9,0.6,1.9,1.9V333c0,1.3-0.6,1.9-1.9,1.9c-1.2,0-1.8-0.6-1.8-1.9v-12.6H6.3V333z"/>
			<path class="st0" d="M32.4,323c0,1.7-0.6,3.1-1.8,4.2c-1.2,1-2.6,1.6-4.3,1.6h-2.8v4.2c0,1.3-0.6,1.9-1.9,1.9
				c-1.2,0-1.8-0.6-1.8-1.9v-13.9c0-1.3,0.6-1.9,1.9-1.9h4.4c1.8,0,3.3,0.5,4.5,1.6C31.8,319.9,32.4,321.3,32.4,323z M26.1,320.4
				h-2.5v5.1h2.5c0.8,0,1.4-0.2,1.9-0.7c0.4-0.5,0.7-1.1,0.7-1.9c0-0.7-0.2-1.3-0.7-1.8C27.4,320.7,26.8,320.4,26.1,320.4z"/>
			<path class="st0" d="M44.7,322c-0.8-1.1-2-1.7-3.4-1.7c-1.4,0-2.6,0.6-3.4,1.7c-0.8,1-1.2,2.3-1.2,3.9c0,1.6,0.4,2.9,1.1,3.9
				c0.8,1.1,2,1.7,3.5,1.7c1.5,0,2.7-0.6,3.5-1.7c0.7-1,1.1-2.3,1.1-3.9C45.8,324.3,45.5,323,44.7,322z M47.3,332.3
				c-1.6,1.7-3.6,2.6-6.1,2.6c-2.5,0-4.5-0.9-6.1-2.6c-1.5-1.7-2.3-3.9-2.3-6.5c0-2.6,0.8-4.7,2.3-6.4c1.6-1.7,3.6-2.6,6.1-2.6
				c2.4,0,4.4,0.9,6,2.6c1.6,1.7,2.4,3.9,2.4,6.4C49.6,328.4,48.9,330.6,47.3,332.3z"/>
			<path class="st0" d="M60.4,320.5h-5.6v3.6h2.9c4.1,0,6.1,1.7,6.1,5.2c0,1.7-0.5,3.1-1.6,4c-1,0.9-2.4,1.3-4.1,1.3h-5.1
				c-0.5,0-1-0.2-1.4-0.5c-0.3-0.3-0.5-0.8-0.5-1.3V319c0-1.2,0.6-1.9,1.9-1.9h7.3c1.1,0,1.7,0.6,1.7,1.7c0,0.4-0.1,0.8-0.4,1.1
				C61.4,320.3,61,320.5,60.4,320.5z M57.7,331.3c1.5,0,2.3-0.7,2.3-2.2c0-1.3-0.9-1.9-2.6-1.9h-2.6v4.1H57.7z"/>
			<path class="st0" d="M68.9,324.1h7.7v-5.4c0-1.3,0.6-1.9,1.8-1.9c1.2,0,1.9,0.6,1.9,1.9V333c0,1.3-0.6,1.9-1.9,1.9
				c-1.2,0-1.8-0.6-1.8-1.9v-5.5h-7.7v5.5c0,1.3-0.6,1.9-1.9,1.9c-1.2,0-1.8-0.6-1.8-1.9v-14.2c0-1.3,0.6-1.9,1.8-1.9
				c1.2,0,1.9,0.6,1.9,1.9V324.1z"/>
			<path class="st0" d="M89.1,320.6l-2.3,7.1h4.6L89.1,320.6L89.1,320.6z M91.8,318.9l4.8,13.5c0.1,0.2,0.1,0.5,0.1,0.9
				c0,0.5-0.1,0.9-0.4,1.2c-0.3,0.3-0.7,0.4-1.2,0.4c-0.9,0-1.5-0.4-1.8-1.3l-0.8-2.5h-6.8l-0.7,2.5c-0.3,0.9-0.9,1.3-1.8,1.3
				c-0.5,0-0.9-0.2-1.3-0.5c-0.3-0.3-0.5-0.7-0.5-1.2c0-0.4,0.1-0.7,0.1-0.8l5-13.5c0.5-1.3,1.4-2,2.6-2
				C90.3,316.8,91.2,317.5,91.8,318.9z"/>
			<path class="st0" d="M106,320.5h-2.5c-1.5,0-2.2,0.7-2.2,2.2c0,1.4,0.7,2.2,2.2,2.2h2.5V320.5z M107.8,334.9
				c-1.2,0-1.9-0.6-1.9-1.9v-5.5l-5.6,6.8c-0.3,0.4-0.8,0.7-1.4,0.7c-0.5,0-1-0.2-1.3-0.6c-0.3-0.4-0.5-0.8-0.5-1.3
				c0-0.4,0.2-0.7,0.5-1l4.2-4.6c-1.3-0.2-2.4-0.7-3.2-1.5c-0.9-0.8-1.3-1.8-1.3-3.1c0-3.7,2-5.6,6.1-5.6h4.3c1.3,0,1.9,0.6,1.9,1.9
				V333C109.7,334.3,109.1,334.9,107.8,334.9z"/>
		</g>
	</g>
</g>
</svg>
